<svg version="1.1" id="Layer_1" xmlns="http://www.w3.org/2000/svg"
	xmlns:xlink="http://www.w3.org/1999/xlink" x="0px" y="0px"
	width="100%" viewBox="0 0 992 992" enable-background="new 0 0 992 992" xml:space="preserve">
<path fill="#D3AF5E" opacity="1.000000" stroke="none" 
	d="
M517.083618,756.853882 
	C513.678528,831.252686 509.845520,905.138916 501.935272,978.890808 
	C499.231171,978.184998 499.887970,976.200134 499.759521,974.737488 
	C497.445465,948.394592 495.002808,922.060974 492.971161,895.695923 
	C491.564972,877.447510 490.910217,859.142273 489.619019,840.883728 
	C487.422760,809.826172 486.474396,778.710999 485.002380,747.620056 
	C484.600739,739.137024 484.243134,730.649719 484.032593,722.160217 
	C483.520538,701.513123 483.243378,680.859497 482.625671,660.215820 
	C481.185486,612.087341 481.158936,563.940613 480.454865,515.803101 
	C479.314270,437.822601 479.992218,359.844452 479.772461,281.865845 
	C479.767700,280.171570 478.999664,277.820953 481.360321,277.131744 
	C483.287781,276.569061 484.837219,278.036621 486.098022,279.380157 
	C490.861603,284.456421 491.594208,290.960663 492.246155,297.436951 
	C492.615936,301.110077 496.676788,306.589661 499.946320,307.442535 
	C502.824921,308.193451 509.446472,302.590332 509.635834,299.004761 
	C509.874481,294.486176 510.438721,290.002533 511.953918,285.779358 
	C513.537354,281.365906 515.941162,277.435364 522.192505,276.823303 
	C522.670227,437.025665 522.887939,596.726807 517.083618,756.853882 
M493.920319,460.500977 
	C494.318268,562.966125 493.336243,665.440308 497.008392,767.880005 
	C498.076202,797.667969 499.682434,827.434326 500.468567,857.232056 
	C500.508392,858.741760 500.906952,860.241943 501.138489,861.746582 
	C510.842712,681.624207 508.173828,501.458527 508.759338,320.889374 
	C501.029236,324.646240 501.029236,324.646240 493.412354,321.370392 
	C493.394897,367.690063 493.004456,413.593719 493.920319,460.500977 
M510.158386,802.396545 
	C509.384491,814.681824 508.706787,826.974182 507.809570,839.250427 
	C506.926056,851.339172 506.298401,863.428284 506.351501,875.544983 
	C513.729919,763.925598 517.627197,652.203674 515.933350,540.327881 
	C515.385742,548.625610 515.393188,556.930176 515.384583,565.234741 
	C515.328979,618.696350 514.650696,672.136658 512.578796,725.574280 
	C511.598999,750.843750 511.235046,776.153503 510.158386,802.396545 
M486.850037,583.500061 
	C486.850037,566.153259 486.850037,548.806458 486.850037,531.459656 
	C484.424469,588.220642 486.186218,644.969788 487.544800,701.690491 
	C488.901367,758.325989 491.748352,814.931885 495.763214,871.460022 
	C495.601715,858.821289 494.966248,846.228760 494.086212,833.600159 
	C492.039215,804.225037 490.870972,774.772339 490.076416,745.331360 
	C489.398163,720.199585 488.691162,695.068359 488.023041,669.936340 
	C487.266205,641.467346 487.211395,612.979675 486.850037,583.500061 
M516.661987,516.175598 
	C516.661987,508.593231 516.661987,501.010864 516.661987,493.428497 
	C516.565735,493.428680 516.469543,493.428864 516.373291,493.429047 
	C516.373291,502.786896 516.373291,512.144775 516.373291,521.502625 
	C516.469971,521.503357 516.566589,521.504028 516.663269,521.504761 
	C516.663269,520.018250 516.663269,518.531738 516.661987,516.175598 
M505.745117,887.650696 
	C505.745117,885.853333 505.745117,884.056030 505.745117,882.258667 
	C505.672668,882.259338 505.600250,882.259949 505.527802,882.260559 
	C505.060455,888.759888 504.593079,895.259155 504.125732,901.758484 
	C504.260956,901.768433 504.396179,901.778381 504.531403,901.788269 
	C504.931793,897.368652 505.332184,892.948975 505.745117,887.650696 
z"/>
<path fill="#D3AF5E" opacity="1.000000" stroke="none" 
	d="
M515.421753,123.647446 
	C516.326904,130.043015 516.388550,135.998642 516.314819,141.782364 
	C514.617676,143.085541 514.763062,140.177902 513.015381,141.134949 
	C515.766785,146.061951 518.050049,151.194763 517.437988,157.080429 
	C517.365845,157.774399 517.967896,158.612274 518.417236,159.275040 
	C521.974731,164.521759 521.818115,165.361679 517.034546,168.633179 
	C517.481995,187.625626 516.577209,206.275909 517.789124,224.877747 
	C517.876831,226.224716 516.464783,226.632523 514.995361,227.087311 
	C516.968872,227.882416 518.203491,228.704849 518.319031,230.693604 
	C518.540710,234.508072 519.048889,238.305786 519.276611,242.120087 
	C519.413391,244.411377 519.596985,246.386826 520.979431,248.568069 
	C524.243347,253.718033 522.424988,256.776764 517.422180,257.190094 
	C553.259216,259.926239 588.791809,266.474060 618.658386,290.001068 
	C618.517212,290.560822 618.376099,291.120544 618.234924,291.680267 
	C614.732117,291.479858 611.220093,291.016052 607.728638,291.138153 
	C601.867981,291.343048 600.852356,292.800690 601.815063,298.608765 
	C602.547546,303.027710 602.060852,305.819580 599.935791,309.392700 
	C598.942200,309.476685 598.494019,308.730499 597.986816,308.095032 
	C581.414917,287.332428 559.290955,276.359009 533.500732,272.741302 
	C518.257996,270.603119 509.450592,275.323151 507.186890,292.338654 
	C506.923920,294.315155 506.610840,296.285126 506.307922,298.256134 
	C505.839264,301.305939 503.570801,303.367737 501.029175,303.338776 
	C498.519409,303.310150 496.225403,301.261444 495.707214,298.245056 
	C495.060181,294.478638 494.695007,290.642303 493.753296,286.952209 
	C491.212158,276.994812 485.371124,272.244873 475.044189,272.425385 
	C455.420898,272.768402 438.074127,280.020386 422.092255,290.928680 
	C414.643005,296.013062 408.026794,302.034058 402.317169,310.509705 
	C399.885681,305.972260 399.502289,302.311981 400.275848,298.332794 
	C401.402954,292.535004 400.719879,291.660431 394.793854,291.162231 
	C392.981262,291.009888 391.135986,291.119812 389.314209,291.239655 
	C387.520874,291.357605 385.738373,291.640442 383.500214,291.904083 
	C384.958099,287.854156 388.271851,286.146454 391.111053,284.161682 
	C403.830353,275.270081 418.175537,269.965942 432.935699,265.657745 
	C446.393402,261.729706 460.157776,259.329987 474.088654,257.989563 
	C477.829437,257.629639 480.132355,256.713745 479.756317,252.457336 
	C479.504089,249.602341 482.062439,247.694397 482.527283,245.117859 
	C483.148865,241.672348 483.713196,238.252060 483.702179,234.653854 
	C483.673645,225.317734 484.847748,216.025787 484.906281,206.650284 
	C484.979248,194.960449 486.013336,183.133072 484.269470,171.658630 
	C483.406677,165.981766 481.618134,161.235687 484.414093,155.511444 
	C485.718750,152.840256 484.910309,148.947403 486.707001,146.007874 
	C488.515991,143.048264 485.236572,141.058929 485.522034,138.127472 
	C486.407928,129.029785 486.193481,119.824669 487.086273,110.728004 
	C488.334473,98.009422 488.417816,85.222290 490.235779,72.518059 
	C491.733582,62.051064 484.420807,50.253189 474.925690,45.904320 
	C471.826141,44.484680 472.275970,42.685913 473.102570,40.301842 
	C477.475830,27.688242 493.634979,18.861662 506.721771,22.137945 
	C516.526611,24.592602 524.541504,29.432047 528.546021,39.356426 
	C529.933167,42.794201 530.051208,45.173111 525.629700,46.481724 
	C520.333984,48.049088 516.994446,52.067078 515.328064,57.257057 
	C512.919800,64.757645 512.084595,72.371613 512.778809,80.344681 
	C514.019287,94.590630 514.561890,108.897346 515.421753,123.647446 
M412.521545,277.089233 
	C407.121185,279.772308 401.359650,281.849457 396.139923,286.207642 
	C399.483887,287.970612 402.400391,288.779022 404.654541,290.850159 
	C407.796814,293.737366 403.194031,296.703735 404.851196,299.569550 
	C405.258911,299.436066 405.632965,299.419098 405.848541,299.225586 
	C407.085693,298.114990 408.264801,296.939758 409.500671,295.827667 
	C426.971283,280.106445 447.318939,270.134644 470.728729,268.258392 
	C487.000122,266.954254 494.798157,273.436646 497.964233,286.595734 
	C498.516296,288.890259 499.113342,291.173920 499.689636,293.462616 
	C499.302521,285.825775 496.944366,278.863373 492.905853,272.464386 
	C490.128387,268.063507 486.579498,265.644958 480.978821,266.024078 
	C462.801575,267.254456 444.929016,269.699249 428.067749,277.138763 
	C426.834015,277.683105 425.595917,279.010620 423.278503,277.469482 
	C438.940369,268.497833 455.524261,264.023956 472.814667,261.630768 
	C451.976318,262.921234 432.315582,268.762421 412.521545,277.089233 
M593.112366,296.296844 
	C594.424133,297.449554 595.735901,298.602264 597.047668,299.754974 
	C592.921021,290.594482 599.959473,288.719238 606.702209,286.185822 
	C583.128174,272.082886 558.422363,265.185211 532.528259,261.882782 
	C548.947571,264.475525 564.580750,269.224518 578.743835,278.084900 
	C578.081238,278.622589 577.579895,278.683716 577.147400,278.538910 
	C575.885132,278.116241 574.622375,277.673828 573.409058,277.129303 
	C556.570923,269.572296 538.694397,267.009338 520.474609,266.058075 
	C517.372009,265.896118 514.531372,266.219849 512.274292,268.737854 
	C506.105621,275.619751 503.045410,283.733124 502.359650,292.806274 
	C503.029541,291.138245 503.351593,289.353668 503.755188,287.587708 
	C505.774475,278.752228 510.057281,271.866699 519.452881,269.366913 
	C523.673096,268.244080 527.931152,267.605835 532.299194,268.149017 
	C555.319763,271.011627 575.271484,280.572052 593.112366,296.296844 
M500.234589,51.769203 
	C500.234589,54.768318 500.234589,57.767433 500.234589,60.766548 
	C502.444489,56.050648 501.838318,51.366463 500.563599,46.661526 
	C500.470612,48.080956 500.377625,49.500385 500.234589,51.769203 
M508.172424,37.922211 
	C509.097809,37.447552 510.415161,37.724983 511.085693,36.315056 
	C506.300385,36.006516 502.853149,40.276501 498.133240,39.517349 
	C501.817627,42.360104 504.511292,39.270519 508.172424,37.922211 
M505.198334,259.764313 
	C501.157257,258.717102 497.189789,259.077179 493.267212,260.346771 
	C497.403748,260.517761 501.579193,262.015350 505.198334,259.764313 
M501.681396,275.664246 
	C501.743378,273.312469 502.039520,270.930389 500.716888,268.758850 
	C500.716888,271.889130 500.716888,275.019409 500.716888,278.149689 
	C500.918152,278.156372 501.119415,278.163055 501.320679,278.169739 
	C501.429596,277.564972 501.538513,276.960175 501.681396,275.664246 
M508.131317,226.206436 
	C508.253204,226.118698 508.463440,226.040649 508.474396,225.940781 
	C508.487854,225.818207 508.357391,225.583908 508.250336,225.557907 
	C504.755524,224.709366 501.378204,223.259415 497.640564,223.597488 
	C500.971313,224.450790 504.302063,225.304092 508.131317,226.206436 
z"/>
<path fill="#000000" opacity="1.000000" stroke="none" 
	d="
M504.106323,586.999634 
	C504.704102,649.937622 503.445496,712.351318 502.376770,774.767517 
	C501.914673,774.788208 501.452576,774.808899 500.990479,774.829590 
	C500.894897,772.822083 500.720612,770.814697 500.716248,768.807007 
	C500.682648,753.309692 501.328156,737.778503 500.518982,722.322937 
	C499.315704,699.340088 502.051941,676.479736 501.638123,653.550964 
	C501.322906,636.083984 501.921143,618.492798 499.986420,601.194702 
	C498.241852,585.596558 499.637177,570.240662 499.689392,554.776001 
	C499.758575,534.301453 498.240723,513.848877 498.825745,493.365234 
	C500.156494,446.771454 499.353210,400.159424 500.012115,353.559937 
	C500.041107,351.507965 499.642700,349.294525 501.075867,347.536713 
	C501.578949,347.556091 502.082031,347.575500 502.585144,347.594879 
	C503.089325,427.229828 503.593536,506.864746 504.106323,586.999634 
z"/>
</svg>